<?xml version="1.0" encoding="UTF-8" standalone="no"?>
<svg
   height="512pt"
   viewBox="0 0 512 512"
   width="512pt"
   version="1.1"
   id="svg13"
   sodipodi:docname="check.svg"
   inkscape:version="1.1 (c4e8f9e, 2021-05-24)"
   xmlns:inkscape="http://www.inkscape.org/namespaces/inkscape"
   xmlns:sodipodi="http://sodipodi.sourceforge.net/DTD/sodipodi-0.dtd"
   xmlns="http://www.w3.org/2000/svg"
   xmlns:svg="http://www.w3.org/2000/svg">
  <defs
     id="defs17" />
  <sodipodi:namedview
     id="namedview15"
     pagecolor="#ffffff"
     bordercolor="#999999"
     borderopacity="1"
     inkscape:pageshadow="0"
     inkscape:pageopacity="0"
     inkscape:pagecheckerboard="0"
     inkscape:document-units="pt"
     showgrid="false"
     inkscape:zoom="0.41522117"
     inkscape:cx="167.38068"
     inkscape:cy="220.36449"
     inkscape:window-width="1280"
     inkscape:window-height="701"
     inkscape:window-x="0"
     inkscape:window-y="23"
     inkscape:window-maximized="1"
     inkscape:current-layer="svg13" />
  <path
     d="m416 512h-320c-53.023438 0-96-42.976562-96-96v-320c0-53.023438 42.976562-96 96-96h320c53.023438 0 96 42.976562 96 96v320c0 53.023438-42.976562 96-96 96zm0 0"
     fill="#fff9dd"
     id="path9"
     style="fill:#a7f3d0;fill-opacity:1" />
  <path
     d="m256 128c-70.574219 0-128 57.425781-128 128s57.425781 128 128 128 128-57.425781 128-128-57.425781-128-128-128zm64.878906 100.878906-69.328125 69.328125c-2.078125 2.082031-4.816406 3.121094-7.535156 3.121094-2.734375 0-5.457031-1.039063-7.535156-3.121094l-34.671875-34.671875c-4.160156-4.160156-4.160156-10.910156 0-15.085937s10.910156-4.160157 15.085937 0l27.121094 27.117187 61.792969-61.789062c4.160156-4.160156 10.910156-4.160156 15.085937 0s4.144531 10.925781-.015625 15.101562zm0 0"
     fill="#ffd200"
     id="path11"
     style="fill:#10b981;fill-opacity:1" />
</svg>
