<?xml version="1.0" encoding="UTF-8" standalone="no"?>
<svg
   height="512pt"
   viewBox="0 0 512 512.92258"
   width="512pt"
   version="1.1"
   id="svg832"
   sodipodi:docname="error.svg"
   inkscape:version="1.1 (c4e8f9e, 2021-05-24)"
   xmlns:inkscape="http://www.inkscape.org/namespaces/inkscape"
   xmlns:sodipodi="http://sodipodi.sourceforge.net/DTD/sodipodi-0.dtd"
   xmlns="http://www.w3.org/2000/svg"
   xmlns:svg="http://www.w3.org/2000/svg">
  <defs
     id="defs836" />
  <sodipodi:namedview
     id="namedview834"
     pagecolor="#ffffff"
     bordercolor="#999999"
     borderopacity="1"
     inkscape:pageshadow="0"
     inkscape:pageopacity="0"
     inkscape:pagecheckerboard="0"
     inkscape:document-units="pt"
     showgrid="false"
     inkscape:zoom="0.30815216"
     inkscape:cx="43.809526"
     inkscape:cy="369.94711"
     inkscape:window-width="1280"
     inkscape:window-height="704"
     inkscape:window-x="0"
     inkscape:window-y="23"
     inkscape:window-maximized="1"
     inkscape:current-layer="svg832" />
  <path
     d="m433.347656 512.921875h-352.898437c-27.71875-.003906-53.460938-14.355469-68.039063-37.9375-14.574218-23.578125-15.902344-53.023437-3.511718-77.820313l176.433593-352.914062c13.542969-27.117188 41.253907-44.25 71.566407-44.25s58.023437 17.132812 71.566406 44.25l176.433594 352.914062c12.390624 24.796876 11.0625 54.242188-3.511719 77.820313-14.574219 23.582031-40.320313 37.933594-68.039063 37.9375zm0 0"
     fill="#ff7761"
     id="path824"
     style="fill:#fb7185;fill-opacity:1" />
  <g
     fill="#fff"
     id="g830">
    <path
       d="m256.898438 128.203125c8.835937 0 16 7.164063 16 16v192c0 8.835937-7.164063 16-16 16-8.835938 0-16-7.164063-16-16v-192c0-8.835937 7.164062-16 16-16zm0 0"
       id="path826" />
    <path
       d="m240.898438 384.203125h32v32h-32zm0 0"
       id="path828" />
  </g>
</svg>
