<svg xmlns="http://www.w3.org/2000/svg" viewBox="0 0 500 500"><g id="freepik--background-complete--inject-1"><rect y="382.4" width="500" height="0.25" style="fill:#ebebeb"></rect><rect x="416.78" y="398.49" width="33.12" height="0.25" style="fill:#ebebeb"></rect><rect x="322.53" y="401.21" width="8.69" height="0.25" style="fill:#ebebeb"></rect><rect x="396.59" y="389.21" width="19.19" height="0.25" style="fill:#ebebeb"></rect><rect x="52.46" y="390.89" width="43.19" height="0.25" style="fill:#ebebeb"></rect><rect x="104.56" y="390.89" width="6.33" height="0.25" style="fill:#ebebeb"></rect><rect x="131.47" y="395.11" width="93.68" height="0.25" style="fill:#ebebeb"></rect><path d="M237,337.8H43.91a5.71,5.71,0,0,1-5.7-5.71V60.66A5.71,5.71,0,0,1,43.91,55H237a5.71,5.71,0,0,1,5.71,5.71V332.09A5.71,5.71,0,0,1,237,337.8ZM43.91,55.2a5.46,5.46,0,0,0-5.45,5.46V332.09a5.46,5.46,0,0,0,5.45,5.46H237a5.47,5.47,0,0,0,5.46-5.46V60.66A5.47,5.47,0,0,0,237,55.2Z" style="fill:#ebebeb"></path><path d="M453.31,337.8H260.21a5.72,5.72,0,0,1-5.71-5.71V60.66A5.72,5.72,0,0,1,260.21,55h193.1A5.71,5.71,0,0,1,459,60.66V332.09A5.71,5.71,0,0,1,453.31,337.8ZM260.21,55.2a5.47,5.47,0,0,0-5.46,5.46V332.09a5.47,5.47,0,0,0,5.46,5.46h193.1a5.47,5.47,0,0,0,5.46-5.46V60.66a5.47,5.47,0,0,0-5.46-5.46Z" style="fill:#ebebeb"></path><polygon points="52.89 381.83 52.89 332.51 75.65 332.51 75.65 286.78 78.86 286.78 78.86 312.99 87.62 312.99 87.62 305.74 103.37 305.74 103.37 280.64 106.29 280.64 106.29 249.97 108.63 249.97 108.63 280.09 114.17 280.09 114.17 324.7 124.67 324.7 124.67 280.09 143.64 280.09 143.64 317.82 163.55 317.82 163.55 272.09 166.76 272.09 166.76 298.3 175.52 298.3 175.52 291.05 191.27 291.05 191.27 265.95 194.19 265.95 194.19 235.28 196.53 235.28 196.53 265.39 202.07 265.39 202.07 310.01 212.57 310.01 212.57 265.39 231.54 265.39 231.54 308.55 244.33 308.55 244.33 283.45 247.25 283.45 247.25 252.78 249.58 252.78 249.58 282.9 255.13 282.9 255.13 327.51 265.63 327.51 265.63 282.9 284.6 282.9 284.6 327.51 293.94 327.51 293.94 332.51 310.29 332.51 310.29 286.78 313.5 286.78 313.5 312.99 322.26 312.99 322.26 305.74 338.01 305.74 338.01 280.64 340.93 280.64 340.93 249.97 343.27 249.97 343.27 280.09 348.36 280.09 348.36 277.57 367.32 277.57 367.32 280.09 377.83 280.09 377.83 277.57 383.37 277.57 383.37 247.46 385.7 247.46 385.7 278.13 388.62 278.13 388.62 303.23 404.38 303.23 404.38 310.48 413.13 310.48 413.13 284.27 416.34 284.27 416.34 330 439.1 330 439.1 381.83 52.89 381.83" style="fill:#ebebeb"></polygon><circle cx="356.85" cy="126.69" r="27.79" transform="translate(103.24 407.89) rotate(-67.5)" style="fill:#fafafa"></circle><path d="M371.26,126.38a4.83,4.83,0,0,1,4.83-4.83,4.92,4.92,0,0,1,1.39.2A10.21,10.21,0,0,1,387.6,110a9.74,9.74,0,0,1,1.88.18,8.94,8.94,0,0,1,16.58,4.52h.15a8.24,8.24,0,1,1,0,16.48H376A4.82,4.82,0,0,1,371.26,126.38Z" style="fill:#f0f0f0"></path><path d="M67,193.3a4.81,4.81,0,0,1,6.22-4.62,10.45,10.45,0,0,1-.11-1.49A10.23,10.23,0,0,1,83.31,177a10.6,10.6,0,0,1,1.88.17,8.94,8.94,0,0,1,16.58,4.52h.15a8.24,8.24,0,0,1,0,16.48H71.67A4.83,4.83,0,0,1,67,193.3Z" style="fill:#f0f0f0"></path><path d="M210,119.94a7.62,7.62,0,0,0-9.84-7.31,16.56,16.56,0,0,0,.17-2.35,16.21,16.21,0,0,0-19.16-15.91A14.15,14.15,0,0,0,155,101.52h-.24a13,13,0,0,0,0,26.08h47.87A7.65,7.65,0,0,0,210,119.94Z" style="fill:#f0f0f0"></path><path d="M351.27,203.17a9.19,9.19,0,0,0-11.84-8.81,19,19,0,0,0,.21-2.83,19.48,19.48,0,0,0-19.48-19.47,20.11,20.11,0,0,0-3.58.33A17,17,0,0,0,285,181l-.28,0a15.69,15.69,0,1,0,0,31.38h57.6A9.19,9.19,0,0,0,351.27,203.17Z" style="fill:#f0f0f0"></path><path d="M310.65,140.85a3,3,0,0,1,3-3,3.08,3.08,0,0,1,.86.12,5.62,5.62,0,0,1-.07-.92,6.36,6.36,0,0,1,6.36-6.36,6.45,6.45,0,0,1,1.17.11,5.56,5.56,0,0,1,10.31,2.81h.09a5.12,5.12,0,1,1,0,10.24H313.57A3,3,0,0,1,310.65,140.85Z" style="fill:#f0f0f0"></path><path d="M420,232.05a3,3,0,0,0-3-3,3.16,3.16,0,0,0-.87.13,5.62,5.62,0,0,0,.07-.92,6.36,6.36,0,0,0-6.36-6.36,6.45,6.45,0,0,0-1.17.11,5.56,5.56,0,0,0-10.31,2.81h-.09a5.12,5.12,0,0,0,0,10.24h18.81A3,3,0,0,0,420,232.05Z" style="fill:#f0f0f0"></path><path d="M138.54,241.85a3,3,0,0,0-3-3,3.16,3.16,0,0,0-.87.13,5.62,5.62,0,0,0,.07-.92,6.36,6.36,0,0,0-6.36-6.36,6.45,6.45,0,0,0-1.17.11,5.56,5.56,0,0,0-10.31,2.81h-.09a5.13,5.13,0,0,0,0,10.25h18.81A3,3,0,0,0,138.54,241.85Z" style="fill:#f0f0f0"></path></g><g id="freepik--Shadow--inject-1"><ellipse id="freepik--path--inject-1" cx="250" cy="416.24" rx="193.89" ry="11.32" style="fill:#f5f5f5"></ellipse></g><g id="freepik--Barrel--inject-1"><path d="M191.17,418.59c-1.62.1-3.3.05-4.92.18-3.62.3-7.27,0-10.86.23a116.84,116.84,0,0,0-16.57,2.84,20.11,20.11,0,0,1-4,.33l-6.23.12a12.87,12.87,0,0,1-3.57-.25,23.58,23.58,0,0,1-2.61-1,13.43,13.43,0,0,0-2.88-.76c-4.1-.61-8.85.06-13,.07-5.08,0-10.09.28-15.19.11l-29-1a3.15,3.15,0,0,1-2.32-.7,1.39,1.39,0,0,1,.51-1.94A5.79,5.79,0,0,1,83,416c11.75-2.07,24.33-1.79,36.3-2,2.93-.06,5.63.52,8.42.57,3.31.06,6.36-2.06,9.63-2.41a44.33,44.33,0,0,1,5.87.13c2.25,0,4.54-.24,6.71.23,1,.21,2,.58,2.93.87a54.41,54.41,0,0,0,7.31,1.25c2.82.38,7,.83,9.76-.13a12.69,12.69,0,0,1,1.27-.45,6.29,6.29,0,0,1,1.57-.13c3.3,0,6.44.51,9.69.51a67,67,0,0,1,11.15.66c3.22.53,6.54.71,9.79,1.17.33.05.75.16.79.44s-.27.45-.56.56c-1.58.6-3.4.4-5.14.4a52.84,52.84,0,0,0-6.2.85C191.89,418.54,191.54,418.57,191.17,418.59Z" style="fill:#EE2737"></path><path d="M191.17,418.59c-1.62.1-3.3.05-4.92.18-3.62.3-7.27,0-10.86.23a116.84,116.84,0,0,0-16.57,2.84,20.11,20.11,0,0,1-4,.33l-6.23.12a12.87,12.87,0,0,1-3.57-.25,23.58,23.58,0,0,1-2.61-1,13.43,13.43,0,0,0-2.88-.76c-4.1-.61-8.85.06-13,.07-5.08,0-10.09.28-15.19.11l-29-1a3.15,3.15,0,0,1-2.32-.7,1.39,1.39,0,0,1,.51-1.94A5.79,5.79,0,0,1,83,416c11.75-2.07,24.33-1.79,36.3-2,2.93-.06,5.63.52,8.42.57,3.31.06,6.36-2.06,9.63-2.41a44.33,44.33,0,0,1,5.87.13c2.25,0,4.54-.24,6.71.23,1,.21,2,.58,2.93.87a54.41,54.41,0,0,0,7.31,1.25c2.82.38,7,.83,9.76-.13a12.69,12.69,0,0,1,1.27-.45,6.29,6.29,0,0,1,1.57-.13c3.3,0,6.44.51,9.69.51a67,67,0,0,1,11.15.66c3.22.53,6.54.71,9.79,1.17.33.05.75.16.79.44s-.27.45-.56.56c-1.58.6-3.4.4-5.14.4a52.84,52.84,0,0,0-6.2.85C191.89,418.54,191.54,418.57,191.17,418.59Z" style="fill:#fff;opacity:0.7000000000000001"></path><rect x="92.3" y="332.9" width="58.12" height="83.38" style="fill:#263238"></rect><rect x="92.3" y="332.9" width="58.12" height="83.38" style="fill:#fff;opacity:0.4"></rect><path d="M151.6,414.24H91.13a1,1,0,0,0-1,1h0a1,1,0,0,0,1,1H151.6a1,1,0,0,0,1-1h0A1,1,0,0,0,151.6,414.24Z" style="fill:#263238"></path><path d="M151.6,372.92H91.13a1,1,0,0,0-1,1h0a1,1,0,0,0,1,1H151.6a1,1,0,0,0,1-1h0A1,1,0,0,0,151.6,372.92Z" style="fill:#263238"></path><path d="M151.6,414.24H91.13a1,1,0,0,0-1,1h0a1,1,0,0,0,1,1H151.6a1,1,0,0,0,1-1h0A1,1,0,0,0,151.6,414.24Z" style="fill:#fff;opacity:0.30000000000000004"></path><path d="M151.6,372.92H91.13a1,1,0,0,0-1,1h0a1,1,0,0,0,1,1H151.6a1,1,0,0,0,1-1h0A1,1,0,0,0,151.6,372.92Z" style="fill:#fff;opacity:0.30000000000000004"></path><path d="M150.42,332.9c0,6-.21,12,0,17.91-1.14,1-4.32,3.8-5.59,3.31a1.22,1.22,0,0,1-.85-1.24c0-.2.12-.42,0-.57s-.58,0-.89,0c-.56,0-.61-.84-.41-1.36s.41-1.24-.07-1.54c-.77.07-1.73.31-1.9,1.07-.41,1.81-.55,6.08.27,7.62a1.82,1.82,0,0,1-1.19,2.51,3.53,3.53,0,0,0-1.22.24c-.45.29-.54.9-.67,1.42s-.49,1.12-1,1.07c-.22,0-.43-.14-.64-.06-.9.34-.79.92-2,.86s-1.5-1.54-2.6-1.31-1.7,2.13-1.39,3.1c.14.46.42,1,.16,1.39s-.55.38-.84.54-.56.56-.35.83c-.57.2-1.4.28-1.57-.3-.06-.22,0-.46-.05-.67-.26-.85-1.49-.19-1.92-.69-.63-.74,0-1.48-.36-2.24-.82-1.7-3.07-.56-3.75-2-.31-.66.19-1.48-.1-2.15-.2-.48-.74-.73-1-1.19-.64-1.23,1.13-2,1.61-2.9,1-1.79.25-2-.44-3.74a2.82,2.82,0,0,1,.55-2.38c.77-1.34,2,.11,2.58-.91a1.36,1.36,0,0,0-.12-1.2c-.15-.33-.34-.71-.69-.81s-.77.39-.5.63c-.35-.35-.92,0-1.3.32s-1.07.55-1.28.1a1.31,1.31,0,0,0,.46-1.53c-.3-.75-1.19-.48-1.46-1s.3-1.1.16-1.51a2.78,2.78,0,0,0-1.8-2.2,2.3,2.3,0,0,0-2.94,1.05,9,9,0,0,0-.27,1.55c-.29,1.39-1.59,2.29-2.64,3.25-.7.63-2,5.62-3.28,3.67-.17-.27-.24-.63-.51-.77a1.13,1.13,0,0,0-.51-.09c-1.18,0-4.54-2.24-4.79.42,0,.32.05.68-.16.91-.36.38-1-.06-1.5.17.06.79.13,2.34-1.14,2.18s-.36-2-.41-2.05c-.32-.15-.65,0-1-.18a.89.89,0,0,1-.31-.3c-1.11-1.52-1.28-3.81-2-5.6-.43-1.14-1.51-2.54-2.55-1.91-.09.65-.48,2-1.29,2.07a.87.87,0,0,1-.74-.21V332.9Z" style="opacity:0.2"></path><path d="M151.6,332.9H91.13a1,1,0,0,0-1,1h0a1,1,0,0,0,1,1H151.6a1,1,0,0,0,1-1h0A1,1,0,0,0,151.6,332.9Z" style="fill:#263238"></path><path d="M151.6,332.9H91.13a1,1,0,0,0-1,1h0a1,1,0,0,0,1,1H151.6a1,1,0,0,0,1-1h0A1,1,0,0,0,151.6,332.9Z" style="fill:#fff;opacity:0.2"></path><path d="M108.39,300.11a9.28,9.28,0,0,0,.07-1.06,9.46,9.46,0,1,0-18.29,3.34,7.38,7.38,0,1,0,6.45,13.26,4.69,4.69,0,0,0,9.27-.86,7.81,7.81,0,0,0,1.62.18,7.46,7.46,0,0,0,.88-14.86Z" style="fill:#263238"></path><path d="M151.58,319.42a5,5,0,0,0-4.46-5,6,6,0,0,0,0-.74,6.41,6.41,0,0,0-12.79-.58h0a5,5,0,0,0-2.46,9.34,4.9,4.9,0,0,0-.07.67,5,5,0,0,0,9.14,3,3.18,3.18,0,0,0,5.93-1.59v0A5,5,0,0,0,151.58,319.42Z" style="fill:#263238"></path><path d="M120.51,287.12a3.72,3.72,0,0,0,2.71,4.15c0,.18-.08.36-.11.54a4.75,4.75,0,0,0,9.3,1.84h0a3.7,3.7,0,0,0,2.84-6.57c0-.16.09-.31.12-.48a3.74,3.74,0,0,0-6.37-3.18,2.35,2.35,0,0,0-1.83-1.48,2.38,2.38,0,0,0-2.69,2v0A3.73,3.73,0,0,0,120.51,287.12Z" style="fill:#263238"></path><path d="M108.39,300.11a9.28,9.28,0,0,0,.07-1.06,9.46,9.46,0,1,0-18.29,3.34,7.38,7.38,0,1,0,6.45,13.26,4.69,4.69,0,0,0,9.27-.86,7.81,7.81,0,0,0,1.62.18,7.46,7.46,0,0,0,.88-14.86Z" style="fill:#fff;opacity:0.7000000000000001"></path><path d="M151.58,319.42a5,5,0,0,0-4.46-5,6,6,0,0,0,0-.74,6.41,6.41,0,0,0-12.79-.58h0a5,5,0,0,0-2.46,9.34,4.9,4.9,0,0,0-.07.67,5,5,0,0,0,9.14,3,3.18,3.18,0,0,0,5.93-1.59v0A5,5,0,0,0,151.58,319.42Z" style="fill:#fff;opacity:0.7000000000000001"></path><path d="M120.51,287.12a3.72,3.72,0,0,0,2.71,4.15c0,.18-.08.36-.11.54a4.75,4.75,0,0,0,9.3,1.84h0a3.7,3.7,0,0,0,2.84-6.57c0-.16.09-.31.12-.48a3.74,3.74,0,0,0-6.37-3.18,2.35,2.35,0,0,0-1.83-1.48,2.38,2.38,0,0,0-2.69,2v0A3.73,3.73,0,0,0,120.51,287.12Z" style="fill:#fff;opacity:0.7000000000000001"></path></g><g id="freepik--Circles--inject-1"><path d="M208.59,189.33a.92.92,0,0,0-.63.21,1,1,0,0,0-.38.78,1,1,0,0,0,1,1,46.37,46.37,0,0,1,10.36,1.24,1,1,0,0,0,.46-1.94A48,48,0,0,0,208.59,189.33Z"></path><path d="M178.22,199.74l-.13.11a1,1,0,0,0-.17,1.4,1,1,0,0,0,1.41.17l.15-.12a46.25,46.25,0,0,1,23.87-9.72,1,1,0,1,0-.21-2,48.07,48.07,0,0,0-15.44,4.3l-12.13-27.68a35.21,35.21,0,0,0,7-4.28,35.76,35.76,0,0,0,8.16-9.09.75.75,0,0,0-.24-1,.74.74,0,0,0-1,.24,34.28,34.28,0,0,1-28.66,16,.84.84,0,0,0-.45.16.76.76,0,0,0-.29.6.74.74,0,0,0,.76.74A35.74,35.74,0,0,0,167,169a36.1,36.1,0,0,0,7.21-2.17l12.15,27.74A49.07,49.07,0,0,0,178.22,199.74Z"></path><path d="M248.55,260.94a1.12,1.12,0,0,0-.25.28,45.82,45.82,0,0,1-6.25,8.35,1,1,0,0,0,0,1.41,1,1,0,0,0,1.42,0,47.81,47.81,0,0,0,6.52-8.71,1,1,0,0,0-1.48-1.29Z"></path><path d="M167.9,260.79a46.66,46.66,0,0,1-4.13-9.58,1,1,0,0,0-1.24-.67,1,1,0,0,0-.33.17,1,1,0,0,0-.34,1.08,48,48,0,0,0,4.31,10,1,1,0,1,0,1.73-1Z"></path><path d="M169.13,266.35c.35.47.7.93,1.07,1.39a48.4,48.4,0,0,0,20.21,15.06,1,1,0,0,0,.73-1.86,46.47,46.47,0,0,1-19.37-14.43c-.35-.45-.69-.89-1-1.35a1,1,0,0,0-1.4-.21l0,0A1,1,0,0,0,169.13,266.35Z"></path><path d="M239.83,271.78a35.49,35.49,0,0,1-2.85,2.44,46.47,46.47,0,0,1-30.57,9.93,1,1,0,0,0-.66.22,1,1,0,0,0-.38.74,1,1,0,0,0,1,1,49.62,49.62,0,0,0,5.32-.09L210.87,316a37.5,37.5,0,0,0-4.34.52,35.56,35.56,0,0,0-11.42,4.22l-.08.06a.75.75,0,0,0-.19,1,.76.76,0,0,0,1,.28,34.27,34.27,0,0,1,32.82-.86.75.75,0,1,0,.69-1.33,35.35,35.35,0,0,0-17-3.94l.78-30a48.41,48.41,0,0,0,25.06-10.14l0,0c1-.8,2-1.65,3-2.53a1,1,0,0,0-1.36-1.46Z"></path><path d="M263,145.94a29.57,29.57,0,0,1,7.37-8.62,29.44,29.44,0,0,1,21.29-6.06.75.75,0,1,0,.17-1.49,30.6,30.6,0,0,0-27.9,12,31.91,31.91,0,0,0-2.24,3.42.75.75,0,0,0,1.31.73Z"></path><path d="M315.51,171a.75.75,0,0,0,1.39.56,30.49,30.49,0,0,0,2.15-10,.75.75,0,0,0-.72-.78.73.73,0,0,0-.5.16.76.76,0,0,0-.28.56A29.1,29.1,0,0,1,315.51,171Z"></path><path d="M314.29,173.69a29.59,29.59,0,0,1-2.58,4.09,29.18,29.18,0,0,1-25.59,11.52.81.81,0,0,0-.53.16.73.73,0,0,0-.28.53.76.76,0,0,0,.69.81,30.67,30.67,0,0,0,26.91-12.12,31.57,31.57,0,0,0,2.71-4.29.75.75,0,0,0-1.33-.7Z"></path><path d="M318.2,157.34a.74.74,0,0,0,.65-.83,30.64,30.64,0,0,0-12-20.76l-.81-.59a.75.75,0,0,0-.89,0,.46.46,0,0,0-.15.16.74.74,0,0,0,.18,1l.77.56a29.08,29.08,0,0,1,11.39,19.74A.75.75,0,0,0,318.2,157.34Z"></path><path d="M259.35,158a29.32,29.32,0,0,1,2.35-9.41.75.75,0,0,0-1.15-.89.76.76,0,0,0-.22.28,30.34,30.34,0,0,0-2.47,9.9.75.75,0,1,0,1.49.12Z"></path><path d="M85.83,265.81a.76.76,0,0,0-.83.07.67.67,0,0,0-.19.22.75.75,0,0,0,.28,1,30.54,30.54,0,0,0,29.5.43,29.6,29.6,0,0,0,4.28-2.73.76.76,0,0,0,.14-1.05.75.75,0,0,0-1.05-.15,28.75,28.75,0,0,1-4.07,2.61A29,29,0,0,1,85.83,265.81Z"></path><path d="M83.29,216.75a28,28,0,0,1,3.31-2,29.29,29.29,0,0,1,28.87.89.75.75,0,0,0,1-.25.76.76,0,0,0-.25-1,30.84,30.84,0,0,0-30.36-.94,31.49,31.49,0,0,0-3.48,2.14l0,0a.75.75,0,0,0,.9,1.2Z"></path><path d="M128,249.53a.75.75,0,1,0,1.42.46,30.67,30.67,0,0,0,1.52-10.52l28.94.12a48.36,48.36,0,0,0,1.18,9,1,1,0,0,0,1.2.75,1,1,0,0,0,.75-1.2A46.78,46.78,0,0,1,168.91,213a1,1,0,0,0-1.46-1.32.92.92,0,0,0-.23.25,48.79,48.79,0,0,0-7.4,26.13l-29-.12a30.38,30.38,0,0,0-3.48-11.85c-.15-.3-.31-.59-.48-.88a.75.75,0,0,0-1-.28l-.1.07a.75.75,0,0,0-.18,1l.46.83A29,29,0,0,1,128,249.53Z"></path><path d="M127.39,254.71a.74.74,0,0,0-.31-1,.78.78,0,0,0-.82.07.91.91,0,0,0-.2.24,28.8,28.8,0,0,1-5.87,7.73.75.75,0,1,0,1,1.09A30.25,30.25,0,0,0,127.39,254.71Z"></path><path d="M74.88,226.09A28.91,28.91,0,0,1,81,218.56a.75.75,0,0,0-1-1.15l0,0a30.43,30.43,0,0,0-6.44,7.92.75.75,0,0,0,1.31.74Z"></path><path d="M75.18,256.8a.76.76,0,0,0,.25-1c-.33-.54-.65-1.09-1-1.66a29.23,29.23,0,0,1-1.64-23.6.75.75,0,0,0-.45-1,.77.77,0,0,0-.72.11.84.84,0,0,0-.24.34,30.72,30.72,0,0,0,1.73,24.82c.31.59.64,1.17,1,1.73A.76.76,0,0,0,75.18,256.8Z"></path><path d="M277.45,257.94a.76.76,0,0,0-.12-1.06.75.75,0,0,0-.93,0,.34.34,0,0,0-.12.12,36,36,0,0,0-3.28,4.86l-19.38-7.24a48.52,48.52,0,0,0,2.53-23.89,1,1,0,0,0-1.13-.84,1,1,0,0,0-.85,1.13,46.51,46.51,0,0,1-3.49,25.56,1,1,0,0,0,1.83.8c.2-.45.36-.91.55-1.37l19.23,7.19a35.66,35.66,0,0,0-3.84,17.53,34.55,34.55,0,0,0,.37,3.94.75.75,0,1,0,1.48-.22,31.6,31.6,0,0,1-.35-3.78A34.17,34.17,0,0,1,277.45,257.94Z"></path><path d="M270.43,288.72a.74.74,0,0,0-.5.93A35.89,35.89,0,0,0,285,309.56a.77.77,0,0,0,1-.23.76.76,0,0,0-.23-1,34.73,34.73,0,0,1-8.6-7.75,34.11,34.11,0,0,1-5.89-11.32A.74.74,0,0,0,270.43,288.72Z"></path><path d="M330.21,301.58a34.75,34.75,0,0,1-4.87,4.68,34.23,34.23,0,0,1-25.81,7,.82.82,0,0,0-.57.16.76.76,0,0,0-.28.49.75.75,0,0,0,.65.84,35.77,35.77,0,0,0,26.94-7.33,36.69,36.69,0,0,0,5.08-4.89.75.75,0,0,0-.09-1.06A.74.74,0,0,0,330.21,301.58Z"></path><path d="M288.09,247.43a35.66,35.66,0,0,0-6,3.84c-.79.63-1.57,1.3-2.31,2a.75.75,0,0,0,0,1.06.75.75,0,0,0,1.06,0,34.34,34.34,0,0,1,8-5.58.75.75,0,0,0,.33-1A.74.74,0,0,0,288.09,247.43Z"></path><path d="M334.11,261.24l-.09.06a.76.76,0,0,0-.19,1,34.3,34.3,0,0,1,3.94,23.62.75.75,0,0,0,1.48.28,36.18,36.18,0,0,0,.62-8.19,35.7,35.7,0,0,0-4.74-16.46A.74.74,0,0,0,334.11,261.24Z"></path><path d="M324,251.48a.76.76,0,0,0,1-.17.75.75,0,0,0-.18-1.05,35.82,35.82,0,0,0-34-4.09.69.69,0,0,0-.19.1.78.78,0,0,0-.23.87.76.76,0,0,0,1,.42,34.34,34.34,0,0,1,32.6,3.92Z"></path><path d="M336.75,290.27a.72.72,0,0,0-.25.34,33.89,33.89,0,0,1-4.49,8.65.75.75,0,0,0,1.22.88,35.65,35.65,0,0,0,4.69-9,.74.74,0,0,0-.46-1A.72.72,0,0,0,336.75,290.27Z"></path><path d="M240.09,329.39a.77.77,0,0,0-.11,1.08,34.37,34.37,0,0,1,7.3,22.76.75.75,0,0,0,1.5.07,36,36,0,0,0-7.62-23.76l0,0A.73.73,0,0,0,240.09,329.39Z"></path><path d="M247,357.63a.73.73,0,0,0-.27.45,34.42,34.42,0,0,1-3.19,9.22.75.75,0,0,0,1.34.69,35.93,35.93,0,0,0,3.32-9.63.74.74,0,0,0-.59-.87A.73.73,0,0,0,247,357.63Z"></path><path d="M186.3,330.31a33.9,33.9,0,0,1,7.1-6.69.75.75,0,0,0-.87-1.23c-.53.38-1.06.77-1.57,1.17a36,36,0,0,0-5.83,5.81.74.74,0,0,0,.12,1.05A.75.75,0,0,0,186.3,330.31Z"></path><path d="M242.07,369.85a34.16,34.16,0,0,1-22.73,15.46,34.82,34.82,0,0,1-5.92.58.76.76,0,0,0-.46.16.74.74,0,0,0-.28.6.75.75,0,0,0,.75.74,35.74,35.74,0,0,0,29.91-16.74.75.75,0,1,0-1.27-.8Z"></path><path d="M186.16,372.83a34.09,34.09,0,0,1-4.1-6.66.75.75,0,0,0-1-.36l-.15.09a.76.76,0,0,0-.21.91,35.37,35.37,0,0,0,4.29,6.95,36,36,0,0,0,13.56,10.54.75.75,0,0,0,.61-1.37A34.5,34.5,0,0,1,186.16,372.83Z"></path><path d="M183.27,333.31a.75.75,0,0,0-.85.06.63.63,0,0,0-.18.21,35.68,35.68,0,0,0-4.3,24.61,33.76,33.76,0,0,0,.94,3.85.75.75,0,1,0,1.43-.43,36.07,36.07,0,0,1-.9-3.69,34.24,34.24,0,0,1,4.12-23.58A.76.76,0,0,0,183.27,333.31Z"></path><path d="M146.91,166.12a.75.75,0,0,0-.38-1,34.36,34.36,0,0,1-17.1-16.76.75.75,0,0,0-1-.37l-.15.09a.76.76,0,0,0-.22.91,35.81,35.81,0,0,0,17.85,17.5A.74.74,0,0,0,146.91,166.12Z"></path><path d="M133.68,112.5a34.36,34.36,0,0,1,7.09-6.69.75.75,0,1,0-.86-1.22c-.54.37-1.06.76-1.57,1.17a35.66,35.66,0,0,0-5.84,5.81.75.75,0,0,0,1.18.93Z"></path><path d="M127.19,144.74a.76.76,0,0,0,.5-.94,32.91,32.91,0,0,1-.9-3.68,34.22,34.22,0,0,1,4.12-23.59.75.75,0,0,0-1.11-1,.72.72,0,0,0-.18.21,36,36,0,0,0-3.37,28.47A.76.76,0,0,0,127.19,144.74Z"></path><path d="M143.24,104.23a34.35,34.35,0,0,1,32.83-.85.75.75,0,1,0,.68-1.34,35.81,35.81,0,0,0-34.26.89l-.09.06a.75.75,0,0,0-.18,1A.74.74,0,0,0,143.24,104.23Z"></path><path d="M192.23,150.18a35.31,35.31,0,0,0,3.33-9.62.75.75,0,0,0-1.2-.73.76.76,0,0,0-.28.45,33.87,33.87,0,0,1-3.18,9.21.75.75,0,1,0,1.33.69Z"></path><path d="M194.65,135.42a.77.77,0,0,0,.72.79.75.75,0,0,0,.78-.72,35.27,35.27,0,0,0-.57-8.19,35.91,35.91,0,0,0-7.05-15.57l0,0a.72.72,0,0,0-1-.11.78.78,0,0,0-.11,1.07,34.37,34.37,0,0,1,7.3,22.76Z"></path><path d="M240.83,201.94a48.19,48.19,0,0,0-18.29-10.46,1,1,0,0,0-.91.18.91.91,0,0,0-.34.49,1,1,0,0,0,.66,1.25,46.67,46.67,0,0,1,27.4,22.78,1,1,0,1,0,1.77-.93,48.68,48.68,0,0,0-4.87-7.48,47.14,47.14,0,0,0-4.33-4.8l23-23.11a30.44,30.44,0,0,0,5.09,4.86c.53.4,1.08.78,1.63,1.15a.75.75,0,1,0,.82-1.26c-.52-.34-1-.71-1.55-1.09a29.62,29.62,0,0,1-5.37-5.24,29.08,29.08,0,0,1-6.12-15.44.75.75,0,0,0-.82-.68.81.81,0,0,0-.4.15.78.78,0,0,0-.28.66A30.6,30.6,0,0,0,264,178.68Z"></path><g style="opacity:0.6000000000000001"><path d="M208.59,189.33a.92.92,0,0,0-.63.21,1,1,0,0,0-.38.78,1,1,0,0,0,1,1,46.37,46.37,0,0,1,10.36,1.24,1,1,0,0,0,.46-1.94A48,48,0,0,0,208.59,189.33Z" style="fill:#fff"></path><path d="M178.22,199.74l-.13.11a1,1,0,0,0-.17,1.4,1,1,0,0,0,1.41.17l.15-.12a46.25,46.25,0,0,1,23.87-9.72,1,1,0,1,0-.21-2,48.07,48.07,0,0,0-15.44,4.3l-12.13-27.68a35.21,35.21,0,0,0,7-4.28,35.76,35.76,0,0,0,8.16-9.09.75.75,0,0,0-.24-1,.74.74,0,0,0-1,.24,34.28,34.28,0,0,1-28.66,16,.84.84,0,0,0-.45.16.76.76,0,0,0-.29.6.74.74,0,0,0,.76.74A35.74,35.74,0,0,0,167,169a36.1,36.1,0,0,0,7.21-2.17l12.15,27.74A49.07,49.07,0,0,0,178.22,199.74Z" style="fill:#fff"></path><path d="M248.55,260.94a1.12,1.12,0,0,0-.25.28,45.82,45.82,0,0,1-6.25,8.35,1,1,0,0,0,0,1.41,1,1,0,0,0,1.42,0,47.81,47.81,0,0,0,6.52-8.71,1,1,0,0,0-1.48-1.29Z" style="fill:#fff"></path><path d="M167.9,260.79a46.66,46.66,0,0,1-4.13-9.58,1,1,0,0,0-1.24-.67,1,1,0,0,0-.33.17,1,1,0,0,0-.34,1.08,48,48,0,0,0,4.31,10,1,1,0,1,0,1.73-1Z" style="fill:#fff"></path><path d="M169.13,266.35c.35.47.7.93,1.07,1.39a48.4,48.4,0,0,0,20.21,15.06,1,1,0,0,0,.73-1.86,46.47,46.47,0,0,1-19.37-14.43c-.35-.45-.69-.89-1-1.35a1,1,0,0,0-1.4-.21l0,0A1,1,0,0,0,169.13,266.35Z" style="fill:#fff"></path><path d="M239.83,271.78a35.49,35.49,0,0,1-2.85,2.44,46.47,46.47,0,0,1-30.57,9.93,1,1,0,0,0-.66.22,1,1,0,0,0-.38.74,1,1,0,0,0,1,1,49.62,49.62,0,0,0,5.32-.09L210.87,316a37.5,37.5,0,0,0-4.34.52,35.56,35.56,0,0,0-11.42,4.22l-.08.06a.75.75,0,0,0-.19,1,.76.76,0,0,0,1,.28,34.27,34.27,0,0,1,32.82-.86.75.75,0,1,0,.69-1.33,35.35,35.35,0,0,0-17-3.94l.78-30a48.41,48.41,0,0,0,25.06-10.14l0,0c1-.8,2-1.65,3-2.53a1,1,0,0,0-1.36-1.46Z" style="fill:#fff"></path><path d="M263,145.94a29.57,29.57,0,0,1,7.37-8.62,29.44,29.44,0,0,1,21.29-6.06.75.75,0,1,0,.17-1.49,30.6,30.6,0,0,0-27.9,12,31.91,31.91,0,0,0-2.24,3.42.75.75,0,0,0,1.31.73Z" style="fill:#fff"></path><path d="M315.51,171a.75.75,0,0,0,1.39.56,30.49,30.49,0,0,0,2.15-10,.75.75,0,0,0-.72-.78.73.73,0,0,0-.5.16.76.76,0,0,0-.28.56A29.1,29.1,0,0,1,315.51,171Z" style="fill:#fff"></path><path d="M314.29,173.69a29.59,29.59,0,0,1-2.58,4.09,29.18,29.18,0,0,1-25.59,11.52.81.81,0,0,0-.53.16.73.73,0,0,0-.28.53.76.76,0,0,0,.69.81,30.67,30.67,0,0,0,26.91-12.12,31.57,31.57,0,0,0,2.71-4.29.75.75,0,0,0-1.33-.7Z" style="fill:#fff"></path><path d="M318.2,157.34a.74.74,0,0,0,.65-.83,30.64,30.64,0,0,0-12-20.76l-.81-.59a.75.75,0,0,0-.89,0,.46.46,0,0,0-.15.16.74.74,0,0,0,.18,1l.77.56a29.08,29.08,0,0,1,11.39,19.74A.75.75,0,0,0,318.2,157.34Z" style="fill:#fff"></path><path d="M259.35,158a29.32,29.32,0,0,1,2.35-9.41.75.75,0,0,0-1.15-.89.76.76,0,0,0-.22.28,30.34,30.34,0,0,0-2.47,9.9.75.75,0,1,0,1.49.12Z" style="fill:#fff"></path><path d="M85.83,265.81a.76.76,0,0,0-.83.07.67.67,0,0,0-.19.22.75.75,0,0,0,.28,1,30.54,30.54,0,0,0,29.5.43,29.6,29.6,0,0,0,4.28-2.73.76.76,0,0,0,.14-1.05.75.75,0,0,0-1.05-.15,28.75,28.75,0,0,1-4.07,2.61A29,29,0,0,1,85.83,265.81Z" style="fill:#fff"></path><path d="M83.29,216.75a28,28,0,0,1,3.31-2,29.29,29.29,0,0,1,28.87.89.75.75,0,0,0,1-.25.76.76,0,0,0-.25-1,30.84,30.84,0,0,0-30.36-.94,31.49,31.49,0,0,0-3.48,2.14l0,0a.75.75,0,0,0,.9,1.2Z" style="fill:#fff"></path><path d="M128,249.53a.75.75,0,1,0,1.42.46,30.67,30.67,0,0,0,1.52-10.52l28.94.12a48.36,48.36,0,0,0,1.18,9,1,1,0,0,0,1.2.75,1,1,0,0,0,.75-1.2A46.78,46.78,0,0,1,168.91,213a1,1,0,0,0-1.46-1.32.92.92,0,0,0-.23.25,48.79,48.79,0,0,0-7.4,26.13l-29-.12a30.38,30.38,0,0,0-3.48-11.85c-.15-.3-.31-.59-.48-.88a.75.75,0,0,0-1-.28l-.1.07a.75.75,0,0,0-.18,1l.46.83A29,29,0,0,1,128,249.53Z" style="fill:#fff"></path><path d="M127.39,254.71a.74.74,0,0,0-.31-1,.78.78,0,0,0-.82.07.91.91,0,0,0-.2.24,28.8,28.8,0,0,1-5.87,7.73.75.75,0,1,0,1,1.09A30.25,30.25,0,0,0,127.39,254.71Z" style="fill:#fff"></path><path d="M74.88,226.09A28.91,28.91,0,0,1,81,218.56a.75.75,0,0,0-1-1.15l0,0a30.43,30.43,0,0,0-6.44,7.92.75.75,0,0,0,1.31.74Z" style="fill:#fff"></path><path d="M75.18,256.8a.76.76,0,0,0,.25-1c-.33-.54-.65-1.09-1-1.66a29.23,29.23,0,0,1-1.64-23.6.75.75,0,0,0-.45-1,.77.77,0,0,0-.72.11.84.84,0,0,0-.24.34,30.72,30.72,0,0,0,1.73,24.82c.31.59.64,1.17,1,1.73A.76.76,0,0,0,75.18,256.8Z" style="fill:#fff"></path><path d="M277.45,257.94a.76.76,0,0,0-.12-1.06.75.75,0,0,0-.93,0,.34.34,0,0,0-.12.12,36,36,0,0,0-3.28,4.86l-19.38-7.24a48.52,48.52,0,0,0,2.53-23.89,1,1,0,0,0-1.13-.84,1,1,0,0,0-.85,1.13,46.51,46.51,0,0,1-3.49,25.56,1,1,0,0,0,1.83.8c.2-.45.36-.91.55-1.37l19.23,7.19a35.66,35.66,0,0,0-3.84,17.53,34.55,34.55,0,0,0,.37,3.94.75.75,0,1,0,1.48-.22,31.6,31.6,0,0,1-.35-3.78A34.17,34.17,0,0,1,277.45,257.94Z" style="fill:#fff"></path><path d="M270.43,288.72a.74.74,0,0,0-.5.93A35.89,35.89,0,0,0,285,309.56a.77.77,0,0,0,1-.23.76.76,0,0,0-.23-1,34.73,34.73,0,0,1-8.6-7.75,34.11,34.11,0,0,1-5.89-11.32A.74.74,0,0,0,270.43,288.72Z" style="fill:#fff"></path><path d="M330.21,301.58a34.75,34.75,0,0,1-4.87,4.68,34.23,34.23,0,0,1-25.81,7,.82.82,0,0,0-.57.16.76.76,0,0,0-.28.49.75.75,0,0,0,.65.84,35.77,35.77,0,0,0,26.94-7.33,36.69,36.69,0,0,0,5.08-4.89.75.75,0,0,0-.09-1.06A.74.74,0,0,0,330.21,301.58Z" style="fill:#fff"></path><path d="M288.09,247.43a35.66,35.66,0,0,0-6,3.84c-.79.63-1.57,1.3-2.31,2a.75.75,0,0,0,0,1.06.75.75,0,0,0,1.06,0,34.34,34.34,0,0,1,8-5.58.75.75,0,0,0,.33-1A.74.74,0,0,0,288.09,247.43Z" style="fill:#fff"></path><path d="M334.11,261.24l-.09.06a.76.76,0,0,0-.19,1,34.3,34.3,0,0,1,3.94,23.62.75.75,0,0,0,1.48.28,36.18,36.18,0,0,0,.62-8.19,35.7,35.7,0,0,0-4.74-16.46A.74.74,0,0,0,334.11,261.24Z" style="fill:#fff"></path><path d="M324,251.48a.76.76,0,0,0,1-.17.75.75,0,0,0-.18-1.05,35.82,35.82,0,0,0-34-4.09.69.69,0,0,0-.19.1.78.78,0,0,0-.23.87.76.76,0,0,0,1,.42,34.34,34.34,0,0,1,32.6,3.92Z" style="fill:#fff"></path><path d="M336.75,290.27a.72.72,0,0,0-.25.34,33.89,33.89,0,0,1-4.49,8.65.75.75,0,0,0,1.22.88,35.65,35.65,0,0,0,4.69-9,.74.74,0,0,0-.46-1A.72.72,0,0,0,336.75,290.27Z" style="fill:#fff"></path><path d="M240.09,329.39a.77.77,0,0,0-.11,1.08,34.37,34.37,0,0,1,7.3,22.76.75.75,0,0,0,1.5.07,36,36,0,0,0-7.62-23.76l0,0A.73.73,0,0,0,240.09,329.39Z" style="fill:#fff"></path><path d="M247,357.63a.73.73,0,0,0-.27.45,34.42,34.42,0,0,1-3.19,9.22.75.75,0,0,0,1.34.69,35.93,35.93,0,0,0,3.32-9.63.74.74,0,0,0-.59-.87A.73.73,0,0,0,247,357.63Z" style="fill:#fff"></path><path d="M186.3,330.31a33.9,33.9,0,0,1,7.1-6.69.75.75,0,0,0-.87-1.23c-.53.38-1.06.77-1.57,1.17a36,36,0,0,0-5.83,5.81.74.74,0,0,0,.12,1.05A.75.75,0,0,0,186.3,330.31Z" style="fill:#fff"></path><path d="M242.07,369.85a34.16,34.16,0,0,1-22.73,15.46,34.82,34.82,0,0,1-5.92.58.76.76,0,0,0-.46.16.74.74,0,0,0-.28.6.75.75,0,0,0,.75.74,35.74,35.74,0,0,0,29.91-16.74.75.75,0,1,0-1.27-.8Z" style="fill:#fff"></path><path d="M186.16,372.83a34.09,34.09,0,0,1-4.1-6.66.75.75,0,0,0-1-.36l-.15.09a.76.76,0,0,0-.21.91,35.37,35.37,0,0,0,4.29,6.95,36,36,0,0,0,13.56,10.54.75.75,0,0,0,.61-1.37A34.5,34.5,0,0,1,186.16,372.83Z" style="fill:#fff"></path><path d="M183.27,333.31a.75.75,0,0,0-.85.06.63.63,0,0,0-.18.21,35.68,35.68,0,0,0-4.3,24.61,33.76,33.76,0,0,0,.94,3.85.75.75,0,1,0,1.43-.43,36.07,36.07,0,0,1-.9-3.69,34.24,34.24,0,0,1,4.12-23.58A.76.76,0,0,0,183.27,333.31Z" style="fill:#fff"></path><path d="M146.91,166.12a.75.75,0,0,0-.38-1,34.36,34.36,0,0,1-17.1-16.76.75.75,0,0,0-1-.37l-.15.09a.76.76,0,0,0-.22.91,35.81,35.81,0,0,0,17.85,17.5A.74.74,0,0,0,146.91,166.12Z" style="fill:#fff"></path><path d="M133.68,112.5a34.36,34.36,0,0,1,7.09-6.69.75.75,0,1,0-.86-1.22c-.54.37-1.06.76-1.57,1.17a35.66,35.66,0,0,0-5.84,5.81.75.75,0,0,0,1.18.93Z" style="fill:#fff"></path><path d="M127.19,144.74a.76.76,0,0,0,.5-.94,32.91,32.91,0,0,1-.9-3.68,34.22,34.22,0,0,1,4.12-23.59.75.75,0,0,0-1.11-1,.72.72,0,0,0-.18.21,36,36,0,0,0-3.37,28.47A.76.76,0,0,0,127.19,144.74Z" style="fill:#fff"></path><path d="M143.24,104.23a34.35,34.35,0,0,1,32.83-.85.75.75,0,1,0,.68-1.34,35.81,35.81,0,0,0-34.26.89l-.09.06a.75.75,0,0,0-.18,1A.74.74,0,0,0,143.24,104.23Z" style="fill:#fff"></path><path d="M192.23,150.18a35.31,35.31,0,0,0,3.33-9.62.75.75,0,0,0-1.2-.73.76.76,0,0,0-.28.45,33.87,33.87,0,0,1-3.18,9.21.75.75,0,1,0,1.33.69Z" style="fill:#fff"></path><path d="M194.65,135.42a.77.77,0,0,0,.72.79.75.75,0,0,0,.78-.72,35.27,35.27,0,0,0-.57-8.19,35.91,35.91,0,0,0-7.05-15.57l0,0a.72.72,0,0,0-1-.11.78.78,0,0,0-.11,1.07,34.37,34.37,0,0,1,7.3,22.76Z" style="fill:#fff"></path><path d="M240.83,201.94a48.19,48.19,0,0,0-18.29-10.46,1,1,0,0,0-.91.18.91.91,0,0,0-.34.49,1,1,0,0,0,.66,1.25,46.67,46.67,0,0,1,27.4,22.78,1,1,0,1,0,1.77-.93,48.68,48.68,0,0,0-4.87-7.48,47.14,47.14,0,0,0-4.33-4.8l23-23.11a30.44,30.44,0,0,0,5.09,4.86c.53.4,1.08.78,1.63,1.15a.75.75,0,1,0,.82-1.26c-.52-.34-1-.71-1.55-1.09a29.62,29.62,0,0,1-5.37-5.24,29.08,29.08,0,0,1-6.12-15.44.75.75,0,0,0-.82-.68.81.81,0,0,0-.4.15.78.78,0,0,0-.28.66A30.6,30.6,0,0,0,264,178.68Z" style="fill:#fff"></path></g></g><g id="freepik--fire-exit--inject-1"><rect x="181.27" y="324.29" width="60.29" height="41.72" transform="translate(556.57 133.74) rotate(90)" style="fill:#EE2737"></rect><rect x="183.59" y="326.62" width="55.64" height="37.06" transform="translate(556.57 133.74) rotate(90)" style="opacity:0.4"></rect><polygon points="204.16 318.68 229.02 371.63 198.48 371.63 204.16 318.68" style="opacity:0.2"></polygon><rect x="194.26" y="318.68" width="18.42" height="52.95" style="fill:#EE2737"></rect><rect x="209.84" y="318.68" width="2.84" height="52.95" style="fill:#fff;opacity:0.2"></rect><path d="M207,343.85a.72.72,0,0,0-.25.07,1.38,1.38,0,0,0-1.16-.95c-.77,0-1.4,1-1.4,2.18s.63,2.19,1.4,2.19a1.37,1.37,0,0,0,1.16-1,.57.57,0,0,0,.25.08c.46,0,.83-.58.83-1.31S207.43,343.85,207,343.85Z" style="fill:#263238"></path><polygon points="243.76 340.01 222.32 340.01 222.32 336.58 213.75 345.15 222.32 353.73 222.32 350.3 243.76 350.3 243.76 340.01"></polygon><polygon points="243.76 340.01 222.32 340.01 222.32 336.58 213.75 345.15 222.32 353.73 222.32 350.3 243.76 350.3 243.76 340.01" style="fill:#fff;opacity:0.8"></polygon></g><g id="freepik--fire-hydrant--inject-1"><rect x="284.6" y="269.25" width="2.67" height="10.68" transform="translate(571.87 549.18) rotate(180)" style="fill:#EE2737"></rect><rect x="284.6" y="269.25" width="2.67" height="10.68" transform="translate(571.87 549.18) rotate(180)" style="opacity:0.4"></rect><path d="M278.69,271.74h6a.48.48,0,0,1,.48.48V277a.48.48,0,0,1-.48.48h-6a1.65,1.65,0,0,1-1.65-1.65v-2.39A1.65,1.65,0,0,1,278.69,271.74Z" transform="translate(562.17 549.18) rotate(180)" style="fill:#EE2737"></path><path d="M280,270.7h2.47a.89.89,0,0,1,.89.89v6a.89.89,0,0,1-.89.89H280a0,0,0,0,1,0,0V270.7A0,0,0,0,1,280,270.7Z" transform="translate(563.33 549.18) rotate(180)" style="fill:#EE2737"></path><path d="M280,270.7h2.47a.89.89,0,0,1,.89.89v6a.89.89,0,0,1-.89.89H280a0,0,0,0,1,0,0V270.7A0,0,0,0,1,280,270.7Z" transform="translate(563.33 549.18) rotate(180)" style="opacity:0.2"></path><rect x="280.91" y="266.84" width="4.88" height="15.5" rx="0.63" transform="translate(566.69 549.18) rotate(180)" style="fill:#EE2737"></rect><path d="M286.54,268.32h7.54a.3.3,0,0,1,.3.3v11.94a.3.3,0,0,1-.3.3h-7.54a0,0,0,0,1,0,0V268.32A0,0,0,0,1,286.54,268.32Z" transform="translate(580.92 549.18) rotate(180)" style="fill:#EE2737"></path><path d="M286.54,268.32h7.54a.3.3,0,0,1,.3.3v11.94a.3.3,0,0,1-.3.3h-7.54a0,0,0,0,1,0,0V268.32A0,0,0,0,1,286.54,268.32Z" transform="translate(580.92 549.18) rotate(180)" style="opacity:0.2"></path><path d="M292.22,268.32a31,31,0,0,0-3.66,12.54h5.82V268.32Z" style="opacity:0.2"></path><rect x="318.17" y="269.25" width="2.67" height="10.68" style="fill:#EE2737"></rect><rect x="318.17" y="269.25" width="2.67" height="10.68" style="opacity:0.4"></rect><path d="M322,271.74h6a.48.48,0,0,1,.48.48V277a.48.48,0,0,1-.48.48h-6a1.65,1.65,0,0,1-1.65-1.65v-2.39A1.65,1.65,0,0,1,322,271.74Z" style="fill:#EE2737"></path><path d="M322.09,270.7h2.47a.89.89,0,0,1,.89.89v6a.89.89,0,0,1-.89.89h-2.47a0,0,0,0,1,0,0V270.7A0,0,0,0,1,322.09,270.7Z" style="fill:#EE2737"></path><path d="M322.09,270.7h2.47a.89.89,0,0,1,.89.89v6a.89.89,0,0,1-.89.89h-2.47a0,0,0,0,1,0,0V270.7A0,0,0,0,1,322.09,270.7Z" style="opacity:0.2"></path><rect x="319.65" y="266.84" width="4.88" height="15.5" rx="0.63" style="fill:#EE2737"></rect><path d="M311.06,268.32h7.54a.3.3,0,0,1,.3.3v11.94a.3.3,0,0,1-.3.3h-7.54a0,0,0,0,1,0,0V268.32A0,0,0,0,1,311.06,268.32Z" style="fill:#EE2737"></path><path d="M311.06,268.32h7.54a.3.3,0,0,1,.3.3v11.94a.3.3,0,0,1-.3.3h-7.54a0,0,0,0,1,0,0V268.32A0,0,0,0,1,311.06,268.32Z" style="opacity:0.2"></path><path d="M313.22,268.32a31,31,0,0,1,3.66,12.54h-5.82V268.32Z" style="opacity:0.2"></path><rect x="298.9" y="235.42" width="7.65" height="3.89" style="fill:#EE2737"></rect><rect x="298.9" y="235.42" width="7.65" height="3.89" style="opacity:0.2"></rect><path d="M306.79,238.52h-8.14l-.14.13a20.32,20.32,0,0,0-6.34,14.75v64.91h21.1V253.4a20.32,20.32,0,0,0-6.34-14.75Z" style="fill:#EE2737"></path><rect x="292.17" y="255.53" width="21.1" height="62.78" style="opacity:0.2"></rect><path d="M314,292.37H291.41a1.34,1.34,0,0,1-1.35-1.34h0a1.34,1.34,0,0,1,1.35-1.34H314a1.34,1.34,0,0,1,1.35,1.34h0A1.34,1.34,0,0,1,314,292.37Z" style="fill:#EE2737"></path><rect x="290.06" y="254.51" width="25.32" height="6.99" rx="1.45" style="fill:#EE2737"></rect><path d="M316.76,259.45H288.68a1.45,1.45,0,0,1-1.45-1.45h0a1.45,1.45,0,0,1,1.45-1.45h28.08a1.44,1.44,0,0,1,1.45,1.45h0A1.44,1.44,0,0,1,316.76,259.45Z" style="fill:#EE2737"></path><path d="M302.72,295h0a3.45,3.45,0,0,1,3.45,3.45v16a0,0,0,0,1,0,0h-6.89a0,0,0,0,1,0,0v-16A3.45,3.45,0,0,1,302.72,295Z" style="opacity:0.2"></path><path d="M310.22,295c-1.13,0-2.06,1.55-2.06,3.45v16h4.13v-16C312.29,296.57,311.36,295,310.22,295Z" style="opacity:0.2"></path><path d="M295.22,295c-1.14,0-2.07,1.55-2.07,3.45v16h4.13v-16C297.28,296.57,296.35,295,295.22,295Z" style="opacity:0.2"></path><path d="M290.5,317.25h24.44A1.76,1.76,0,0,1,316.7,319v1.8a0,0,0,0,1,0,0h-28a0,0,0,0,1,0,0V319a1.76,1.76,0,0,1,1.76-1.76Z" style="fill:#EE2737"></path><path d="M292.08,314.87h21.27a2,2,0,0,1,2,2v1.42a0,0,0,0,1,0,0H290.06a0,0,0,0,1,0,0v-1.42A2,2,0,0,1,292.08,314.87Z" style="fill:#EE2737"></path><path d="M316.76,259.45H288.68a1.45,1.45,0,0,1-1.45-1.45h0a1.45,1.45,0,0,1,1.45-1.45h28.08a1.44,1.44,0,0,1,1.45,1.45h0A1.44,1.44,0,0,1,316.76,259.45Z" style="fill:#fff;opacity:0.2"></path><path d="M290.5,317.25h24.44A1.76,1.76,0,0,1,316.7,319v1.8a0,0,0,0,1,0,0h-28a0,0,0,0,1,0,0V319a1.76,1.76,0,0,1,1.76-1.76Z" style="fill:#fff;opacity:0.2"></path><rect x="297.84" y="233.77" width="9.76" height="3.3" rx="0.93" style="fill:#EE2737"></rect><path d="M304.83,254.19a78.43,78.43,0,0,0-1.13-13.84h-2a78.43,78.43,0,0,0-1.13,13.84Z" style="fill:#fff;opacity:0.2"></path><path d="M311.85,254.19c0-5.18-2-11-4.43-13.84h-.82a36.42,36.42,0,0,1,2.47,13.84Z" style="fill:#fff;opacity:0.2"></path><path d="M293.59,254.19c0-5.18,2-11,4.43-13.84h.82a36.42,36.42,0,0,0-2.47,13.84Z" style="fill:#fff;opacity:0.2"></path><path d="M292.17,254.51h21.1s-3.4-1.67-10.55-1.67S292.17,254.51,292.17,254.51Z" style="opacity:0.2"></path><path d="M310.37,274.59v4.33a7.3,7.3,0,0,1-7.3,7.3h-.7a7.3,7.3,0,0,1-7.3-7.3v-4.33Z" style="opacity:0.2"></path><circle cx="302.72" cy="274.59" r="7.65" transform="translate(-105.5 294.48) rotate(-45)" style="fill:#EE2737"></circle><path d="M306.72,274.59a4,4,0,1,1-4-4A4,4,0,0,1,306.72,274.59Z" style="opacity:0.2"></path><path d="M305.57,274.59a2.85,2.85,0,1,1-2.85-2.85A2.86,2.86,0,0,1,305.57,274.59Z" style="fill:#EE2737"></path></g><g id="freepik--Extinguisher--inject-1"><path d="M274.48,183.76l-2.85-.94c4.46-13.5,1-23.11-2.26-32.41-.66-1.86-1.35-3.78-1.95-5.7-2.62-8.29-2.2-15.4,1.19-20,2.94-4,7.92-6.06,14.79-6.06v3c-5.86,0-10,1.63-12.37,4.83-3.79,5.18-2.1,13.09-.75,17.35.59,1.87,1.26,3.77,1.92,5.61C275.67,159.18,279.26,169.29,274.48,183.76Z" style="fill:#263238"></path><path d="M300.48,130.44v59.73a1.74,1.74,0,0,1-1.74,1.74H278a1.74,1.74,0,0,1-1.74-1.74V130.44a3.54,3.54,0,0,1,1.84-3.1l5.31-2.35a2.27,2.27,0,0,0,1-1,2.3,2.3,0,0,0,.22-1v-3.85h7.59V123a2.3,2.3,0,0,0,.22,1,2.27,2.27,0,0,0,1,1l5.3,2.35A3.52,3.52,0,0,1,300.48,130.44Z" style="fill:#EE2737"></path><path d="M292.37,124h-8a2.3,2.3,0,0,0,.22-1v-3.85h7.59V123A2.3,2.3,0,0,0,292.37,124Z" style="opacity:0.2"></path><path d="M284.47,120.91v-7.35a41.39,41.39,0,0,1,18.44-5.37v1.11s-8,1-11.14,2.82l1,3.12A16.33,16.33,0,0,1,305,117l-.47.94s-8.52-4.12-12.45.09v2.91Z" style="fill:#263238"></path><rect x="283.63" y="118.32" width="9.46" height="3.47" style="fill:#263238"></rect><circle cx="285.96" cy="116.27" r="0.49" style="fill:#fff;opacity:0.6000000000000001"></circle><path d="M295.29,121.81a.49.49,0,0,1-.41-.21l-5-7.06a.49.49,0,0,1,.12-.69.5.5,0,0,1,.7.12l5,7a.51.51,0,0,1-.12.7A.52.52,0,0,1,295.29,121.81Z" style="fill:#e0e0e0"></path><path d="M291.19,120.12a2.84,2.84,0,1,1-2.83-2.83A2.84,2.84,0,0,1,291.19,120.12Z" style="fill:#263238"></path><path d="M291.19,120.12a2.84,2.84,0,1,1-2.83-2.83A2.84,2.84,0,0,1,291.19,120.12Z" style="fill:#fff;opacity:0.30000000000000004"></path><path d="M290.7,120.12a2.34,2.34,0,1,1-2.34-2.34A2.34,2.34,0,0,1,290.7,120.12Z" style="fill:#fff;opacity:0.7000000000000001"></path><path d="M288.8,121.35a.45.45,0,1,1-.44-.44A.44.44,0,0,1,288.8,121.35Z" style="fill:#263238"></path><polygon points="288.11 121.35 288.36 118.81 288.61 121.35 288.11 121.35" style="fill:#263238"></polygon><rect x="279.6" y="134.82" width="18.99" height="30.32" style="fill:#fff;opacity:0.4"></rect><rect x="282.47" y="117.54" width="1.88" height="5.18" style="fill:#263238"></rect><rect x="282.47" y="117.54" width="1.88" height="5.18" style="fill:#fff;opacity:0.30000000000000004"></rect><polygon points="273.43 190.34 268.19 188.54 272.21 180.82 275.02 181.79 273.43 190.34" style="fill:#263238"></polygon><polygon points="273.43 190.34 268.19 188.54 272.21 180.82 275.02 181.79 273.43 190.34" style="fill:#fff;opacity:0.30000000000000004"></polygon><rect x="294.72" y="129.68" width="4.54" height="59.74" rx="1.13" style="fill:#fff;opacity:0.2"></rect><rect x="275.25" y="180.04" width="26.01" height="3.24" style="fill:#263238"></rect><path d="M271.27,182.5h4.4v-1.67h-4.4a.84.84,0,0,0-.84.83h0A.84.84,0,0,0,271.27,182.5Z" style="fill:#263238"></path><g style="opacity:0.1"><rect x="275.25" y="180.04" width="26.01" height="3.24" style="fill:#fff"></rect><path d="M271.27,182.5h4.4v-1.67h-4.4a.84.84,0,0,0-.84.83h0A.84.84,0,0,0,271.27,182.5Z" style="fill:#fff"></path></g></g><g id="freepik--emergency-kit--inject-1"><path d="M168.71,117.5H152v-7.94a3.31,3.31,0,0,1,3.3-3.31h10.1a3.31,3.31,0,0,1,3.31,3.31Zm-14.71-2h12.71v-5.94a1.31,1.31,0,0,0-1.31-1.31H155.3a1.3,1.3,0,0,0-1.3,1.31Z" style="fill:#263238"></path><rect x="137.26" y="150.3" width="46.17" height="4.73" style="fill:#263238"></rect><rect x="137.26" y="153.71" width="5.31" height="2.22" style="fill:#263238"></rect><rect x="178.13" y="153.92" width="5.31" height="2.22" style="fill:#263238"></rect><rect x="131.24" y="113.22" width="58.23" height="39.43" rx="3.76" style="fill:#EE2737"></rect><rect x="140.45" y="111.71" width="7.43" height="1.52" style="fill:#263238"></rect><rect x="172.82" y="111.71" width="7.43" height="1.52" style="fill:#263238"></rect><polygon points="168.24 130.66 163.08 130.66 163.08 125.51 157.62 125.51 157.62 130.66 152.47 130.66 152.47 136.12 157.62 136.12 157.62 141.28 163.08 141.28 163.08 136.12 168.24 136.12 168.24 130.66" style="fill:#fff;opacity:0.6000000000000001"></polygon><path d="M189.47,117.55v30.77a4.33,4.33,0,0,1-4.32,4.33H135.56a4.3,4.3,0,0,1-4-2.8,4.22,4.22,0,0,0,1.9.45H183a4.31,4.31,0,0,0,4.32-4.32V115.19a4.17,4.17,0,0,0-.27-1.51A4.33,4.33,0,0,1,189.47,117.55Z" style="opacity:0.2"></path><path d="M133.15,147.19V117.47a2.58,2.58,0,0,1,2.58-2.58h48.82a2,2,0,0,1-2,2H137.17a2.05,2.05,0,0,0-2,2v26.23a2,2,0,0,1-2,2Z" style="fill:#fff;opacity:0.2"></path></g><g id="freepik--fire-alarm--inject-1"><path d="M110.61,251.19h-1v-5.73a3.09,3.09,0,0,1,1.3-2.53c2.18-1.55,7.37-5.73,8.47-11.1l1,.2c-1.17,5.72-6.59,10.1-8.87,11.71a2.12,2.12,0,0,0-.88,1.72Z" style="fill:#263238"></path><path d="M120.85,231.93a1,1,0,1,1-1-1A1,1,0,0,1,120.85,231.93Z" style="fill:#263238"></path><rect x="94.31" y="238.92" width="11.87" height="8.7" style="fill:#263238"></rect><path d="M118.16,225.32a17.9,17.9,0,0,1-35.77,1c0-.33,0-.67,0-1a17.91,17.91,0,0,1,17.91-17.91l.72,0A17.9,17.9,0,0,1,118.16,225.32Z" style="fill:#EE2737"></path><path d="M106.28,225.32a6,6,0,1,1-6-6A6,6,0,0,1,106.28,225.32Z" style="opacity:0.2"></path><path d="M105.2,225.32a5,5,0,1,1-5-4.95A4.95,4.95,0,0,1,105.2,225.32Z" style="fill:#263238"></path><path d="M82.34,225.32c0,.34,0,.68,0,1C82.36,226,82.34,225.66,82.34,225.32Z" style="opacity:0.2"></path><path d="M118.16,225.32a17.9,17.9,0,0,1-35.77,1c.83,9,12.65,16.57,23.9,9.46,12.9-8.17,6.87-27.61-5.32-28.36A17.9,17.9,0,0,1,118.16,225.32Z" style="opacity:0.2"></path><path d="M87.66,214.74c3.3-3.7,6.77.22,3.59,3.49C87.79,221.79,84.36,218.43,87.66,214.74Z" style="fill:#fff;opacity:0.2"></path><rect x="86.16" y="246.83" width="28.22" height="11.87" rx="1.75" style="fill:#263238"></rect><rect x="86.16" y="246.83" width="28.22" height="11.87" rx="1.75" style="fill:#fff;opacity:0.2"></rect></g><g id="freepik--Character--inject-1"><path d="M315.9,205.36l-6.08-4.13-1.23,8.06s5.65,3.36,7.26.37Z" style="fill:#e4897b"></path><polygon points="302.55 200.87 303.85 208.15 308.6 209.29 309.82 201.23 302.55 200.87" style="fill:#e4897b"></polygon><polygon points="324.54 210.28 314.31 204.29 311.59 209.32 320.82 214.97 324.54 210.28" style="fill:#e4897b"></polygon><path d="M364.47,215.08s-3.35,3.28-7.59,7c-.84.75-1.72,1.51-2.61,2.27s-1.53,1.3-2.3,1.93l-2.45,1.95c-3.36,2.58-6.43,4.56-8.17,4.72-3.43.33-12-5.45-18.53-10.27-1-.77-2-1.52-2.92-2.21l-2.46-1.9-2.54-2-.23-.19,3.84-9.52.6.36,2.65,1.62,2.57,1.57,3.14,1.9c6,3.61,12.95,7.72,13.76,7.86.13,0,.47-.25,1-.77s1.28-1.36,2.14-2.36c.61-.69,1.27-1.47,2-2.32l2.37-2.8c5.26-6.29,11.67-14,13.44-14.54Z" style="fill:#EE2737"></path><path d="M352.62,225.77c6-5,11.86-10.7,11.86-10.7l-1.27-9.59a5.18,5.18,0,0,0-1,.77C357.82,210.18,354,217.7,352.62,225.77Z" style="opacity:0.1"></path><g style="opacity:0.7000000000000001"><path d="M356.88,222.11c-.84.75-1.72,1.51-2.61,2.27s-1.53,1.3-2.3,1.93l-2.45,1.95c-2.43-2.9-4.94-5.94-7.31-8.87.54-.54,1.28-1.36,2.14-2.36.61-.69,1.27-1.47,2-2.32l2.37-2.8C351.11,215,353.89,218.43,356.88,222.11Z" style="fill:#fff"></path></g><g style="opacity:0.4"><path d="M354.27,224.38c-.76.65-1.53,1.3-2.3,1.93-2.66-3.18-5.25-6.35-7.62-9.28.61-.69,1.27-1.47,2-2.32C348.78,217.75,351.48,221.07,354.27,224.38Z"></path></g><g style="opacity:0.7000000000000001"><path d="M327.47,212.3c-1.29,2.85-2.88,6.41-4.65,10.41-1-.77-2-1.52-2.92-2.21l-2.46-1.9-2.54-2c1.46-3.36,2.9-6.58,4.21-9.35l2.65,1.62,2.57,1.57Z" style="fill:#fff"></path></g><g style="opacity:0.4"><path d="M324.33,210.4c-1.3,2.91-2.83,6.37-4.43,10.1l-2.46-1.9c1.57-3.62,3.05-7,4.32-9.77Z"></path></g><path d="M345,408.07l8.06-.22a.65.65,0,0,1,.65.48l1.69,6.5a1,1,0,0,1-1,1.33c-2.91,0-7.12,0-10.78.08-4.27.11-7-.1-12,0-3,.08-4-2.95-2.72-3.26,5.73-1.41,9.47-1.13,14.35-4.33A3.32,3.32,0,0,1,345,408.07Z" style="fill:#263238"></path><polygon points="344.28 408.69 345.31 389.68 356.97 391.11 353.36 410.65 344.28 408.69" style="fill:#263238"></polygon><path d="M386.07,408.07l8.06-.22a.65.65,0,0,1,.65.48l1.69,6.5a1.05,1.05,0,0,1-1,1.33c-2.92,0-7.12,0-10.78.08-4.27.11-7-.1-12,0-3,.08-4-2.95-2.72-3.26,5.73-1.41,9.48-1.13,14.36-4.33A3.32,3.32,0,0,1,386.07,408.07Z" style="fill:#263238"></path><polygon points="383.77 396.18 384.31 408.69 394.78 408.33 394.78 396.18 383.77 396.18" style="fill:#263238"></polygon><path d="M398.87,248.81c3.88,16.82-2.77,149.07-2.77,149.07H383.24l-5.5-110.22L357.48,397.88l-13.74-1c9-85.38,16.93-136.35,16.93-136.35l0-6.45Z" style="fill:#EE2737"></path><path d="M396.8,382.93c-.06,1.24-.11,2.41-.16,3.51s-.1,2.06-.14,3q-.09,1.74-.15,3.15c-.16,3.38-.26,5.29-.26,5.29H383.23l-.25-5.05-.16-3.14-.15-3-.18-3.62-4.76-95.4-4.31,23.45-13.26,72.18-.58,3.17-.55,3-.58,3.18-1,5.27-13.75-1c.19-1.84.39-3.67.58-5.48.11-1.05.22-2.09.34-3.13s.21-2,.32-3c.12-1.17.25-2.33.37-3.48,8.31-76.27,15.32-121.28,15.32-121.28l0-6.44,38.23-5.27C401.94,262.12,398.4,347.84,396.8,382.93Z" style="opacity:0.2"></path><path d="M373.42,311.11l4.31-23.45-.83-12.41S371,296.77,373.42,311.11Z" style="opacity:0.2"></path><path d="M402.39,274.54l.07,1.25-18.17-.59-26.53-.86.2-2,.28-2.87.3-3,.28-2.86c0-.26,0-.52,0-.77-.31-11.33-.14-21.69.25-30.65,0-1,.09-2,.14-3s.1-2,.15-3c.08-1.24.15-2.46.23-3.63,1-15.74,2.57-25.27,2.57-25.27,20.63-6,43.27,1.06,43.27,1.06-1.32,6.21-2.29,16.53-3,26.5-.07,1-.14,2-.2,2.93l-.18,3c-.07,1.15-.14,2.28-.19,3.39-.55,10.11-.79,18.07-.79,18.07l.75,12.87.17,2.95.18,3Z" style="fill:#EE2737"></path><g style="opacity:0.7000000000000001"><path d="M402.45,224.93c-.07,1-.14,2-.2,2.93l-.18,3c-.07,1.15-.14,2.28-.19,3.39-8.71-.16-31.49-.7-42.83-2,0-1,.09-2,.14-3s.1-2,.15-3c.08-1.24.15-2.46.23-3.63C366.2,223.13,384.48,224.39,402.45,224.93Z" style="fill:#fff"></path></g><g style="opacity:0.4"><path d="M402.25,227.86l-.18,3c-1.46,0-3,0-4.53,0-13.8,0-30.3-1.06-38.35-1.64.05-1,.1-2,.15-3C368.28,226.92,387.82,228.16,402.25,227.86Z"></path></g><g style="opacity:0.7000000000000001"><path d="M402.39,274.54c-8.57-.15-33.32-.71-44.43-2.19l.28-2.87.3-3,.28-2.86c0-.26,0-.52,0-.77,5.8.43,24.51,1.76,43,2.33l.17,2.95.18,3Z" style="fill:#fff"></path></g><g style="opacity:0.4"><path d="M402.19,271.13c-1.5,0-3.06.05-4.65.05-14.36,0-31.66-1.14-39.3-1.7l.3-3c8.47.63,28.61,1.95,43.47,1.65Z"></path></g><path d="M384.29,275.2l-26.53-.86,23.79.2c-2.87-21.18,3.15-74.31,3.15-74.31l1.29-.58C383.81,202.82,382.73,238.28,384.29,275.2Z" style="opacity:0.2"></path><path d="M386.39,193.66s7.82-.39,10.28,2S394.56,207,392.79,206s-8.09-5.78-8.09-5.78-5.64,2-8.67-.57c0,0-4.21,4.66-6.48,3.63S368.51,190.27,386.39,193.66Z" style="fill:#EE2737"></path><path d="M386.39,193.66s7.82-.39,10.28,2S394.56,207,392.79,206s-8.09-5.78-8.09-5.78-5.64,2-8.67-.57c0,0-4.21,4.66-6.48,3.63S368.51,190.27,386.39,193.66Z" style="fill:#fff;opacity:0.2"></path><path d="M388.57,249.94l10.92,7.71s-.45,4.89-7.05,1.06S388.57,249.94,388.57,249.94Z" style="fill:#fff;opacity:0.2"></path><path d="M367.93,249.94s.68.41,0,2.38-5.13,6.32-7.2,4.14Z" style="fill:#fff;opacity:0.2"></path><path d="M376.77,204.29c.06-.22-5,32-3.8,66.13C373,270.42,370.62,227.48,376.77,204.29Z" style="opacity:0.2"></path><path d="M371.63,164.15s-14,39.39,25,27.34V165.61S378.35,155.44,371.63,164.15Z" style="fill:#263238"></path><path d="M371.63,164.15s-14,39.39,25,27.34V165.61S378.35,155.44,371.63,164.15Z" style="fill:#fff;opacity:0.30000000000000004"></path><path d="M391.49,194.81s-10,5.31-12.49,4.81c-1.73-.35-3.46-3.84-3.46-3.84,2.72-.83,4.14-2.25,4.78-3.94a11,11,0,0,0,0-6.26h0l5.91-5.47,4.07-3.78C389.19,181.7,388,191.48,391.49,194.81Z" style="fill:#e4897b"></path><path d="M388.29,182.49c-.33,2.8-5.15,7.8-8,9.35a11,11,0,0,0,0-6.26l5.91-5.48C386.51,180.91,388.5,180.69,388.29,182.49Z" style="opacity:0.2"></path><path d="M374.77,162.69c-1.78,2.1-1.65,5.33-1.73,7.39s-.44,4.75,2.2,1.91S380.61,157.48,374.77,162.69Z" style="fill:#263238"></path><path d="M391.29,172.23c-.89,6.88,0,8.05-3.71,11.33-5.62,4.94-14.28,5.41-15.06-1.68-.7-6.37-.59-17.84,6.37-20.07A9.56,9.56,0,0,1,391.29,172.23Z" style="fill:#ff8b7b"></path><path d="M390.27,176.86c-3.63-.12-3.12-1.57-2.91-1.91.94-1.48-.1-3.67-1.22-6.5s4.55-6.09,8.67-4.87C398.61,164.7,396.33,177.06,390.27,176.86Z" style="fill:#263238"></path><path d="M374.94,178.92s2.5.71,7.47-.8c-.6,1.55-1.78,2.86-4.6,3S374.94,178.92,374.94,178.92Z" style="fill:#fff"></path><path d="M394.14,177.05a6.37,6.37,0,0,1-3.41,3.17c-1.9.68-2.8-1.2-2.24-3.25.51-1.84,2.12-4.41,4-4.2S395,175.21,394.14,177.05Z" style="fill:#ff8b7b"></path><path d="M376.77,172.15a16.09,16.09,0,0,1-2.34,3.77,2.63,2.63,0,0,0,2.15.52Z" style="fill:#ff5652"></path><path d="M394.92,160.6c-1.44-2.32-13.65-4.26-18.5-2.59a3.13,3.13,0,0,0-2.16,4.35c2.31,4.55,6.15,2.07,6.15,2.07a5.58,5.58,0,0,1,7.72,1.64l7.12-1.71A3.93,3.93,0,0,0,394.92,160.6Z" style="fill:#263238"></path><path d="M382.72,171.88c0,.58-.37,1-.75,1s-.66-.51-.63-1.09.36-1,.74-1S382.75,171.3,382.72,171.88Z" style="fill:#263238"></path><path d="M376.15,171.46c0,.58-.36,1-.74,1s-.67-.51-.63-1.09.36-1,.74-1S376.18,170.88,376.15,171.46Z" style="fill:#263238"></path><path d="M384.85,169.89a.36.36,0,0,1-.31-.16,2.73,2.73,0,0,0-2.12-1.27.35.35,0,0,1-.35-.34.34.34,0,0,1,.33-.34,3.38,3.38,0,0,1,2.71,1.58.35.35,0,0,1-.09.47A.49.49,0,0,1,384.85,169.89Z" style="fill:#263238"></path><path d="M373.44,169a.43.43,0,0,1-.19,0,.35.35,0,0,1-.14-.47,3.35,3.35,0,0,1,2.56-1.76.34.34,0,0,1,.05.68,2.6,2.6,0,0,0-2,1.42A.33.33,0,0,1,373.44,169Z" style="fill:#263238"></path><path d="M377.38,177.2s4.78-1.88,6.24-.87,1.55,9.09,1.55,9.09-3.19,4.23-9.14,1.82-3.59-10.06-3-10.38,3.7.34,3.7.34v.89h-3.24s.32,4.94,2.08,6.19,1.16-1.79,1.16-1.79H379s-.61,2.06.18,2.26,3.71-1.95,3.79-3.65-.51-4.12-.86-3.9a47.12,47.12,0,0,1-4.69.89Z" style="fill:#263238"></path><path d="M389.29,166.28s-4.13,18.84,7.38,25.21c0,0,1.19-16.19,3.44-21.9Z" style="fill:#263238"></path><path d="M389.29,166.28s-4.13,18.84,7.38,25.21c0,0,1.19-16.19,3.44-21.9Z" style="fill:#fff;opacity:0.5"></path><path d="M369.85,161.25a4.52,4.52,0,0,1-2.78-1.59c-1.28-1.48-.68-9.29,6-12A26.19,26.19,0,0,1,395,149.38c6.72,3.76,5.44,16.9,5.44,16.9s-7.5-.92-11.81-3.52-8.85-12.32-8.85-12.32S370.94,153.24,369.85,161.25Z" style="fill:#263238"></path><path d="M369.85,161.25a4.52,4.52,0,0,1-2.78-1.59c-1.28-1.48-.68-9.29,6-12A26.19,26.19,0,0,1,395,149.38c6.72,3.76,5.44,16.9,5.44,16.9s-7.5-.92-11.81-3.52-8.85-12.32-8.85-12.32S370.94,153.24,369.85,161.25Z" style="fill:#fff;opacity:0.5"></path><path d="M369.65,158.73l1,.14-.61,7.09-.3.32-.7-.21a10.87,10.87,0,0,1-.54-5.26l.78-.19Z" style="fill:#263238"></path><path d="M367.94,164.54s-.17-1.15,2.11-1.65c0,0,1.32-9.49,11.29-10.78,0,0,2.06-2.27,6.21-1.68a8.39,8.39,0,0,1,5.94,3.86s6.22,1.69,6.27,13.6c0,0,2.19,1.48,1.62,2.2C401.38,170.09,383.33,162.53,367.94,164.54Z" style="fill:#EE2737"></path><path d="M367.94,164.54s21.51,1.87,33.44,5.55a58.63,58.63,0,0,0-17.76-5.55C370.15,162.38,367.94,164.54,367.94,164.54Z" style="fill:#263238"></path><path d="M373.07,162.7s1.87-7.52,8.27-8.61c0,0,4.23,2.41,3.85,9.7C385.19,163.79,377.81,162.26,373.07,162.7Z" style="opacity:0.4"></path><path d="M380.34,156.17l2.07,1.58a5.81,5.81,0,0,0-1.07,2.18c-.42,1.45-2.45,1.88-2.45,1.88s-1.26-.72-1.46-1.6.26-2.4,0-2.83Z" style="fill:#fff"></path><path d="M393.49,154.29s-5.77-2.67-10.39-.56a5.23,5.23,0,0,1,5.54-2.66A7.47,7.47,0,0,1,393.49,154.29Z" style="opacity:0.2"></path><path d="M381.34,152.11a11.38,11.38,0,0,0-1,1.22S378.52,152.54,381.34,152.11Z" style="opacity:0.2"></path><path d="M369.85,161.25a4.52,4.52,0,0,1-2.78-1.59c-1.28-1.48-.68-9.29,6-12A26.19,26.19,0,0,1,395,149.38c6.72,3.76,5.44,16.9,5.44,16.9s-7.5-.92-11.81-3.52-8.85-12.32-8.85-12.32-4.68-5.43-10.71,1C367.41,153.2,365.38,159.75,369.85,161.25Z" style="fill:#fff;opacity:0.5"></path><path d="M400.51,162.4h-1.78l-.5,4.43-2.15.95v.41l1.56,2.18-.2,1.78s1.48,1,1.58.74,1.09-2.11,1.09-2.11h1.36v-1.95l-1-2A31.35,31.35,0,0,0,400.51,162.4Z" style="fill:#263238"></path><path d="M379.7,192a10.78,10.78,0,0,1-4.29-.89c-7.34-3.16-6.79-15.67-6.47-23.14.06-1.29.11-2.4.11-3.28h1c0,.9-.05,2-.11,3.32-.31,7.21-.84,19.29,5.87,22.18a11,11,0,0,0,9.54-.66c5.91-3,10.9-10.17,12.69-18.22l1,.22c-1.86,8.32-7,15.74-13.22,18.89A13.39,13.39,0,0,1,379.7,192Z" style="fill:#263238"></path><polygon points="401.1 252.32 394.11 261.9 398.85 265.11 405.38 256.49 401.1 252.32" style="fill:#e4897b"></polygon><path d="M422.37,234.41c-.29,4.28-6.06,12.77-10.91,19.21-.75,1-1.48,1.95-2.16,2.82s-1.3,1.65-1.86,2.34c-.84,1.05-1.53,1.89-2,2.45l-.66.79-6.69-5.7.23-.47c.28-.55.78-1.57,1.42-2.88l1.34-2.74,1.62-3.33c2.49-5.18,5.17-10.86,5.65-12.42a3.27,3.27,0,0,0-.2-2,15.3,15.3,0,0,0-1.36-2.83c-.5-.84-1.06-1.69-1.63-2.51-.76-1.07-1.52-2.08-2.18-2.91-1-1.23-1.68-2.05-1.68-2.05s-.89-11-.14-16.43,4.24-7.36,4.24-7.36c2.19.64,7.06,8.81,11,17.4.5,1.07,1,2.16,1.44,3.23s.8,1.89,1.17,2.82.79,2,1.14,3C421.62,228.91,422.51,232.39,422.37,234.41Z" style="fill:#EE2737"></path><path d="M395.88,259.61l-4.79,5.53,8.9,2.52s3-5.6.2-7.52Z" style="fill:#e4897b"></path><polygon points="390.79 271.12 398.24 272.87 399.99 267.66 391.09 265.14 390.79 271.12" style="fill:#e4897b"></polygon><g style="opacity:0.7000000000000001"><path d="M420.18,224.88c-4.11,2.68-8.3,5.37-12,7.64a15.3,15.3,0,0,0-1.36-2.83c-.5-.84-1.06-1.69-1.63-2.51-.76-1.07-1.52-2.08-2.18-2.91,3.67-2.27,8.33-5.18,13.44-8.44.5,1.07,1,2.16,1.44,3.23s.8,1.89,1.17,2.82S419.83,223.91,420.18,224.88Z" style="fill:#fff"></path></g><g style="opacity:0.4"><path d="M419,221.88c-4.39,2.86-8.63,5.56-12.24,7.81-.5-.84-1.06-1.69-1.63-2.51,3.74-2.33,8.16-5.14,12.7-8.12Q418.48,220.49,419,221.88Z"></path></g><g style="opacity:0.7000000000000001"><path d="M411.46,253.62c-.75,1-1.48,1.95-2.16,2.82s-1.3,1.65-1.86,2.34c-.84,1.05-1.53,1.89-2,2.45-2.45-1.82-4.87-3.65-7.12-5.38.28-.55.78-1.57,1.42-2.88l1.34-2.74,1.62-3.33C405.22,248.85,408.19,251.14,411.46,253.62Z" style="fill:#fff"></path></g><g style="opacity:0.4"><path d="M409.3,256.44c-.67.86-1.3,1.65-1.86,2.34-2.74-2-5.34-4-7.69-5.81l1.34-2.74C403.57,252.13,406.36,254.25,409.3,256.44Z"></path></g><g style="opacity:0.7000000000000001"><path d="M360.16,383.29l-.58,3.17-.55,3-.58,3.18c-4.14-.32-9.11-.74-14.14-1.21.11-1.05.22-2.09.34-3.13s.21-2,.32-3c.12-1.17.25-2.33.37-3.48C350,382.3,355,382.81,360.16,383.29Z" style="fill:#fff"></path></g><g style="opacity:0.4"><path d="M359.58,386.46l-.55,3c-4.71-.29-9.64-.7-14.38-1.16.1-1,.21-2,.32-3C349.8,385.75,354.81,386.17,359.58,386.46Z"></path></g><g style="opacity:0.7000000000000001"><path d="M396.8,382.93c-.06,1.24-.11,2.41-.16,3.51s-.1,2.06-.14,3q-.09,1.74-.15,3.15c-4.53.13-9.17.23-13.37.24l-.16-3.14-.15-3-.18-3.62C386.54,383.05,391.45,383,396.8,382.93Z" style="fill:#fff"></path></g><g style="opacity:0.4"><path d="M396.64,386.44c-.05,1.06-.1,2.06-.14,3-4.86.15-9.57.22-13.68.25l-.15-3C386.85,386.65,391.67,386.58,396.64,386.44Z"></path></g><path d="M391.37,277.24l8.45,2.45-.07,9C394.81,288.45,392.54,283.65,391.37,277.24Z" style="fill:#fff;opacity:0.2"></path><path d="M364.48,275.25l-6.24,1.85-1,7C361.58,284.54,362.54,282.35,364.48,275.25Z" style="fill:#fff;opacity:0.2"></path></g></svg>