<?xml version="1.0" encoding="UTF-8" standalone="no"?>
<svg
   height="512pt"
   viewBox="0 0 512 512"
   width="512pt"
   version="1.1"
   id="svg828"
   sodipodi:docname="remove.svg"
   inkscape:version="1.1 (c4e8f9e, 2021-05-24)"
   xmlns:inkscape="http://www.inkscape.org/namespaces/inkscape"
   xmlns:sodipodi="http://sodipodi.sourceforge.net/DTD/sodipodi-0.dtd"
   xmlns="http://www.w3.org/2000/svg"
   xmlns:svg="http://www.w3.org/2000/svg">
  <defs
     id="defs832" />
  <sodipodi:namedview
     id="namedview830"
     pagecolor="#ffffff"
     bordercolor="#999999"
     borderopacity="1"
     inkscape:pageshadow="0"
     inkscape:pageopacity="0"
     inkscape:pagecheckerboard="0"
     inkscape:document-units="pt"
     showgrid="false"
     inkscape:zoom="0.32405019"
     inkscape:cx="223.73078"
     inkscape:cy="302.42229"
     inkscape:window-width="1280"
     inkscape:window-height="704"
     inkscape:window-x="0"
     inkscape:window-y="23"
     inkscape:window-maximized="1"
     inkscape:current-layer="svg828" />
  <path
     d="m416 512h-320c-53.023438 0-96-42.976562-96-96v-320c0-53.023438 42.976562-96 96-96h320c53.023438 0 96 42.976562 96 96v320c0 53.023438-42.976562 96-96 96zm0 0"
     fill="#ffe6e2"
     id="path824"
     style="fill:#ffe4e6;fill-opacity:1" />
  <path
     d="m256 128c-70.574219 0-128 57.425781-128 128s57.425781 128 128 128 128-57.425781 128-128-57.425781-128-128-128zm47.136719 160.0625c4.160156 4.160156 4.160156 10.914062 0 15.089844-2.082031 2.078125-4.816407 3.121094-7.535157 3.121094-2.722656 0-5.457031-1.042969-7.539062-3.121094l-32.0625-32.0625-32.0625 32.0625c-2.082031 2.078125-4.816406 3.121094-7.539062 3.121094-2.734376 0-5.453126-1.042969-7.535157-3.121094-4.160156-4.160156-4.160156-10.914063 0-15.089844l32.046875-32.0625-32.0625-32.0625c-4.160156-4.160156-4.160156-10.914062 0-15.089844 4.160156-4.175781 10.914063-4.160156 15.089844 0l32.0625 32.0625 32.0625-32.0625c4.160156-4.160156 10.914062-4.160156 15.089844 0 4.175781 4.160156 4.160156 10.914063 0 15.089844l-32.0625 32.0625zm0 0"
     fill="#fc573b"
     id="path826"
     style="fill:#f43f5e;fill-opacity:1" />
</svg>
